<svg width="200" height="87" viewBox="0 0 200 87" fill="none" xmlns="http://www.w3.org/2000/svg">
<g clip-path="url(#clip0_7174_172708)">
<circle cx="96.8531" cy="21.9058" r="21.0933" fill="url(#paint0_linear_7174_172708)"/>
<circle cx="96.8531" cy="21.9058" r="21.0933" fill="#5766EC"/>
<path d="M81.282 24.5837L83.3617 16.4727L85.7468 25.7747H82.2061C81.5831 25.7747 81.1272 25.1872 81.282 24.5837Z" fill="white"/>
<path d="M100.864 20.6597L98.0729 34.846L93.8867 20.4271L96.2123 8.56641L100.864 20.6597Z" fill="white"/>
<path d="M89.4601 14.6133H84.1191L90.0167 35.5826C90.2424 36.385 90.9742 36.9393 91.8078 36.9393H97.1427L91.7937 17.8692L91.249 15.9627C91.0208 15.1639 90.2908 14.6133 89.4601 14.6133Z" fill="white"/>
<path d="M102.466 6.9375H97.1426L103.78 24.6371C103.984 25.1817 104.505 25.5425 105.086 25.5425H110.631L103.767 7.8287C103.559 7.29153 103.042 6.9375 102.466 6.9375Z" fill="white"/>
<path d="M111.764 18.332H109.467L111.56 23.9135L112.666 19.4879C112.813 18.9008 112.369 18.332 111.764 18.332Z" fill="white"/>
</g>
<path d="M3.12678 58.2845C4.35493 58.2845 5.28352 57.3491 5.28352 56.1422C5.28352 54.9052 4.35493 54 3.12678 54C1.9286 54 1 54.9052 1 56.1422C1 57.3491 1.9286 58.2845 3.12678 58.2845ZM1.44932 76.2672H4.80425V60.8793H1.44932V76.2672Z" fill="#0D0D3F"/>
<path d="M27.154 60.5172C24.8474 60.5172 22.9903 61.4828 21.7921 63.2328C20.8635 61.5431 19.1261 60.5172 16.8795 60.5172C14.9025 60.5172 13.2849 61.2716 12.1467 62.6897V60.8793H8.79173V76.2672H12.1467V67.3362C12.1467 65.194 13.6144 63.7759 15.7712 63.7759C17.838 63.7759 19.1561 65.1638 19.1561 67.2759V76.2672H22.511V67.3362C22.511 65.194 23.9788 63.7759 26.1355 63.7759C28.2024 63.7759 29.5204 65.1638 29.5204 67.2759V76.2672H32.8753V66.2802C32.8753 62.8103 30.6287 60.5172 27.154 60.5172Z" fill="#0D0D3F"/>
<path d="M45.3578 60.5172C43.1112 60.5172 41.224 61.4828 39.9659 63.1121V60.8793H36.611V82H39.9659V74.0345C41.224 75.6638 43.1112 76.6293 45.3578 76.6293C49.6413 76.6293 52.8764 73.1595 52.8764 68.5733C52.8764 63.9871 49.6413 60.5172 45.3578 60.5172ZM44.6988 73.3707C42.0028 73.3707 39.9659 71.2888 39.9659 68.5733C39.9659 65.8578 42.0028 63.7759 44.6988 63.7759C47.3947 63.7759 49.4016 65.8578 49.4016 68.5733C49.4016 71.2888 47.3947 73.3707 44.6988 73.3707Z" fill="#0D0D3F"/>
<path d="M63.8059 76.6293C68.0295 76.6293 70.8453 74.0647 70.8453 70.1422V60.8793H67.4903V69.6897C67.4903 71.8922 66.0225 73.3707 63.8059 73.3707C61.5892 73.3707 60.0915 71.8922 60.0915 69.6897V60.8793H56.7366V70.1422C56.7366 74.0647 59.5523 76.6293 63.8059 76.6293Z" fill="#0D0D3F"/>
<path d="M74.5571 76.2672H77.912V54.5431H74.5571V76.2672Z" fill="#0D0D3F"/>
<path d="M87.0816 76.6293C90.6462 76.6293 93.462 74.8793 93.462 71.681C93.462 68.3319 90.4066 67.5474 87.9503 67.0043C86.0931 66.5819 84.6253 66.2198 84.6253 65.0129C84.6253 63.9569 85.8535 63.444 87.3512 63.444C88.9388 63.444 90.2868 64.0474 91.3352 64.9526L93.1025 62.569C91.7546 61.4526 89.8075 60.5172 87.2913 60.5172C83.9963 60.5172 81.2105 62.0862 81.2105 65.2543C81.2105 68.6336 84.2958 69.4181 86.7521 69.9914C88.5494 70.4138 90.0471 70.806 90.0471 72.0129C90.0471 73.0991 88.7291 73.7026 87.0217 73.7026C85.1346 73.7026 83.6368 73.0086 82.4686 71.8922L80.7312 74.2759C82.199 75.5733 84.2958 76.6293 87.0816 76.6293Z" fill="#0D0D3F"/>
<path d="M111.478 68.6034C111.478 63.9569 108.033 60.5172 103.45 60.5172C98.8672 60.5172 95.3924 63.9569 95.3924 68.5129C95.3924 73.1293 98.987 76.6293 103.84 76.6293C106.715 76.6293 109.231 75.3922 110.789 73.431L108.513 71.4698C107.644 72.6164 105.936 73.5819 103.93 73.5819C101.443 73.5819 99.5561 72.1336 99.0169 69.931H111.388C111.448 69.5086 111.478 69.0259 111.478 68.6034ZM103.42 63.5647C105.607 63.5647 107.374 64.9828 107.884 67.1552H98.987C99.5262 65.0129 101.234 63.5647 103.42 63.5647Z" fill="#0D0D3F"/>
<path d="M136.626 60.8793L131.503 74.8793L126.261 60.8793H124.973L119.731 74.9397L114.579 60.8793H113.231L119.042 76.2672H120.36L125.602 62.2371L130.814 76.2672H132.132L137.944 60.8793H136.626Z" fill="#0D0D3F"/>
<path d="M154.198 60.8793V65.0431C153 62.3276 150.394 60.5172 147.189 60.5172C142.695 60.5172 139.34 63.9871 139.34 68.5733C139.34 73.1595 142.695 76.6293 147.189 76.6293C150.394 76.6293 153 74.819 154.198 72.1034V76.2672H155.396V60.8793H154.198ZM147.398 75.4526C143.504 75.4526 140.599 72.4957 140.599 68.5733C140.599 64.6509 143.504 61.694 147.398 61.694C151.262 61.694 154.198 64.6509 154.198 68.5733C154.198 72.4957 151.262 75.4526 147.398 75.4526Z" fill="#0D0D3F"/>
<path d="M160.397 76.2672H161.595V54.5431H160.397V76.2672Z" fill="#0D0D3F"/>
<path d="M167.598 76.2672H168.797V54.5431H167.598V76.2672Z" fill="#0D0D3F"/>
<path d="M188.628 68.5733C188.628 63.9871 185.213 60.5172 180.69 60.5172C176.166 60.5172 172.782 63.9871 172.782 68.5431C172.782 73.1595 176.286 76.6293 180.989 76.6293C184.015 76.6293 186.561 75.2112 187.999 72.9784L187.13 72.2845C185.932 74.2155 183.685 75.4828 181.019 75.4828C177.185 75.4828 174.279 72.7974 174.04 69.0862H188.598C188.598 68.9353 188.628 68.7543 188.628 68.5733ZM180.69 61.6638C184.314 61.6638 187.1 64.3491 187.37 68H174.04C174.279 64.3491 177.065 61.6638 180.69 61.6638Z" fill="#0D0D3F"/>
<path d="M199.5 61.9957V60.8793H194.438V56.5043H193.239V60.8793H190.124V61.9957H193.239V72.8578C193.239 75.4526 194.677 76.6293 197.074 76.6293C198.092 76.6293 198.781 76.4181 199.5 76.0259V74.8793C198.841 75.2414 198.182 75.4526 197.283 75.4526C195.516 75.4526 194.438 74.7284 194.438 72.6767V61.9957H199.5Z" fill="#0D0D3F"/>
<defs>
<linearGradient id="paint0_linear_7174_172708" x1="96.8531" y1="0.8125" x2="96.8531" y2="42.9991" gradientUnits="userSpaceOnUse">
<stop stop-color="#5766EC"/>
<stop offset="1" stop-color="#3641A7"/>
</linearGradient>
<clipPath id="clip0_7174_172708">
<rect x="75.7598" y="0.8125" width="42.1866" height="42.1866" rx="21.0933" fill="white"/>
</clipPath>
</defs>
</svg>
